<svg width="1600" height="1000" viewBox="0 0 1600 1000" fill="none" xmlns="http://www.w3.org/2000/svg">
  <rect width="1600" height="1000" fill="#07110F"/>
  <circle cx="1260" cy="100" r="390" fill="#0B4A3B" fill-opacity=".32"/>
  <circle cx="170" cy="930" r="430" fill="#10372E" fill-opacity=".33"/>
  <rect x="160" y="130" width="1280" height="740" rx="28" fill="#0C1916" stroke="#285A4D" stroke-width="2"/>
  <rect x="160" y="130" width="1280" height="78" rx="28" fill="#10231E"/>
  <circle cx="215" cy="169" r="9" fill="#53D6AA"/><circle cx="245" cy="169" r="9" fill="#326456"/><circle cx="275" cy="169" r="9" fill="#326456"/>
  <text x="326" y="178" fill="#C9E8DD" font-family="Arial, sans-serif" font-size="23" letter-spacing="4">BUSINESS INTELLIGENCE</text>
  <rect x="208" y="255" width="285" height="545" rx="16" fill="#10231E"/>
  <text x="244" y="308" fill="#75E1BD" font-family="Arial, sans-serif" font-size="18" letter-spacing="3">SOURCES</text>
  <rect x="240" y="342" width="220" height="62" rx="10" fill="#17342C"/><text x="265" y="380" fill="#E7F8F1" font-family="Arial, sans-serif" font-size="19">Q2 reports</text>
  <rect x="240" y="424" width="220" height="62" rx="10" fill="#17342C"/><text x="265" y="462" fill="#E7F8F1" font-family="Arial, sans-serif" font-size="19">Sales data</text>
  <rect x="240" y="506" width="220" height="62" rx="10" fill="#17342C"/><text x="265" y="544" fill="#E7F8F1" font-family="Arial, sans-serif" font-size="19">Playbooks</text>
  <rect x="548" y="266" width="780" height="172" rx="18" fill="#13362C" stroke="#2D8068"/>
  <text x="590" y="322" fill="#7AE5C1" font-family="Arial, sans-serif" font-size="17" letter-spacing="3">ASK YOUR KNOWLEDGE BASE</text>
  <text x="590" y="380" fill="white" font-family="Arial, sans-serif" font-size="30">What drove enterprise growth this quarter?</text>
  <rect x="548" y="478" width="780" height="248" rx="18" fill="#10231E"/>
  <text x="590" y="535" fill="#77DDBC" font-family="Arial, sans-serif" font-size="17" letter-spacing="3">GROUNDED ANSWER</text>
  <text x="590" y="590" fill="#E8F6F0" font-family="Arial, sans-serif" font-size="26">Enterprise revenue increased 28%, led by</text>
  <text x="590" y="630" fill="#E8F6F0" font-family="Arial, sans-serif" font-size="26">renewals and expanded mid-market adoption.</text>
  <rect x="590" y="664" width="166" height="32" rx="16" fill="#1D4A3D"/><text x="611" y="686" fill="#9AEBCF" font-family="Arial, sans-serif" font-size="14">Q2 Report · p.12</text>
  <rect x="776" y="664" width="146" height="32" rx="16" fill="#1D4A3D"/><text x="797" y="686" fill="#9AEBCF" font-family="Arial, sans-serif" font-size="14">CRM · Deals</text>
  <text x="208" y="930" fill="#62D4AA" font-family="Arial, sans-serif" font-size="26" letter-spacing="5">BUSINESS RAG</text>
</svg>
